<svg width="33" height="32" viewBox="0 0 33 32" fill="none" xmlns="http://www.w3.org/2000/svg">
<path d="M16.5 32C7.66344 32 0.5 24.8366 0.5 16C0.5 7.16344 7.66344 0 16.5 0C25.3366 0 32.5 7.16344 32.5 16C32.5 24.8366 25.3366 32 16.5 32Z" fill="#153A22"/>
<path fill-rule="evenodd" clip-rule="evenodd" d="M11.3116 21.7354C10.6729 22.2186 10.551 23.1226 11.0395 23.7545C11.528 24.3864 12.4419 24.5069 13.0807 24.0237L15.663 22.0704C16.3018 21.5872 16.4236 20.6832 15.9352 20.0513C15.4467 19.4194 14.5328 19.2988 13.894 19.7821L11.3116 21.7354ZM17.337 17.1777C16.6981 17.6609 16.5763 18.5649 17.0648 19.1968C17.5533 19.8287 18.4672 19.9492 19.106 19.466L21.6883 17.5126C22.0768 17.2188 22.2741 16.7693 22.2592 16.32C22.2741 15.8707 22.0768 15.4212 21.6883 15.1274L19.106 13.174C18.4672 12.6908 17.5533 12.8113 17.0648 13.4432C16.5763 14.0751 16.6981 14.9791 17.337 15.4623L18.4708 16.32L17.337 17.1777ZM11.3116 10.9046C10.6729 10.4214 10.551 9.51737 11.0395 8.8855C11.528 8.25357 12.4419 8.13305 13.0807 8.61625L15.663 10.5696C16.3018 11.0528 16.4236 11.9568 15.9352 12.5887C15.4467 13.2206 14.5328 13.3412 13.894 12.8579L11.3116 10.9046Z" fill="white"/>
</svg>
