<svg width="22" height="26" viewBox="0 0 22 26" fill="none" xmlns="http://www.w3.org/2000/svg">
<path fill-rule="evenodd" clip-rule="evenodd" d="M11.0265 0.164093C8.23679 0.167591 5.56233 1.27703 3.58932 3.2492C1.61632 5.22138 0.505765 7.89538 0.501099 10.685C0.501099 14.7109 3.04535 18.3795 5.47055 21.1046C7.89574 23.8296 10.3209 25.6463 10.3209 25.6463C10.5232 25.798 10.7692 25.88 11.022 25.88C11.2749 25.88 11.5209 25.798 11.7231 25.6463C11.7231 25.6463 14.1483 23.8296 16.5735 21.1046C18.9987 18.3795 21.543 14.7109 21.543 10.685C21.5407 7.89543 20.4314 5.22074 18.4589 3.24819C16.4863 1.27563 13.8161 0.166428 11.0265 0.164093ZM11.022 6.01102C12.2617 6.01102 13.4505 6.50346 14.3271 7.38001C15.2036 8.25656 15.6961 9.44541 15.6961 10.685C15.6961 11.9247 15.2036 13.1135 14.3271 13.9901C13.4505 14.8666 12.2617 15.3591 11.022 15.3591C9.78242 15.3591 8.59356 14.8666 7.71702 13.9901C6.84047 13.1135 6.34803 11.9247 6.34803 10.685C6.34803 9.44541 6.84047 8.25656 7.71702 7.38001C8.59356 6.50346 9.78242 6.01102 11.022 6.01102Z" fill="#29C743"/>
</svg>
