<svg width="175" height="178" viewBox="0 0 175 178" fill="none" xmlns="http://www.w3.org/2000/svg">
<path d="M12.5665 160.523V83.4474L43.9051 89.0839V160.523C43.9051 169.879 36.8897 177.463 28.236 177.463C19.5819 177.463 12.5665 169.879 12.5665 160.523Z" fill="#0A4F09"/>
<path d="M111.853 122.089C111.257 122.089 110.659 121.986 110.086 121.775L42.5768 97.4388L32.3248 92.107V41.599L42.5768 36.6665L110.111 12.3217C110.885 12.0416 111.715 11.9522 112.531 12.0611C113.347 12.17 114.124 12.474 114.798 12.9474C115.472 13.4208 116.022 14.0496 116.401 14.7808C116.781 15.5119 116.979 16.3238 116.979 17.1478V116.957C116.979 117.631 116.847 118.299 116.589 118.922C116.332 119.544 115.954 120.11 115.478 120.587C115.002 121.063 114.437 121.441 113.815 121.699C113.193 121.957 112.526 122.09 111.853 122.089Z" fill="#EAF2F8"/>
<path d="M32.3257 66.9554V92.1022L42.5777 97.434L110.087 121.77C110.861 122.055 111.693 122.148 112.512 122.042C113.33 121.936 114.111 121.634 114.788 121.161C115.465 120.688 116.017 120.058 116.399 119.326C116.781 118.593 116.98 117.779 116.98 116.953V66.9554H32.3257Z" fill="#E0E8F1"/>
<path d="M106.582 123.741L92.6878 118.523L41.6665 96.8791L41.6663 83.4482H106.582L106.582 123.741Z" fill="#53C51E"/>
<path d="M49.277 47.0901H56.4401V84.6964H49.277V47.0901ZM70.7663 47.0901H77.9294V84.6964H70.7663V47.0901ZM92.2555 47.0901H99.4186V84.6964H92.2555V47.0901Z" fill="#54CF08"/>
<path d="M49.277 54.2474H56.4401V61.4105H49.277V54.2474ZM70.7663 54.2474H77.9294V61.4105H70.7663V54.2474ZM92.2555 54.2474H99.4186V61.4105H92.2555V54.2474Z" fill="#369813"/>
<path d="M60.022 95.4378V99.0194H52.8589V95.4378C52.8589 94.4879 53.2362 93.5769 53.9079 92.9053C54.5796 92.2336 55.4905 91.8563 56.4404 91.8563C57.3903 91.8563 58.3013 92.2336 58.973 92.9053C59.6446 93.5769 60.022 94.4879 60.022 95.4378ZM77.9297 95.4378V99.0194H70.7666V95.4378C70.7666 94.4879 71.144 93.5769 71.8156 92.9053C72.4873 92.2336 73.3983 91.8563 74.3482 91.8563C75.2981 91.8563 76.209 92.2336 76.8807 92.9053C77.5524 93.5769 77.9297 94.4879 77.9297 95.4378ZM95.8375 95.4378V99.0194H88.6744V95.4378C88.6744 94.4879 89.0517 93.5769 89.7234 92.9053C90.395 92.2336 91.306 91.8563 92.2559 91.8563C93.2058 91.8563 94.1168 92.2336 94.7885 92.9053C95.4601 93.5769 95.8375 94.4879 95.8375 95.4378Z" fill="#39700E"/>
<path d="M63.6033 84.6972H42.114V70.371L63.6033 84.6972ZM85.0926 84.6972H63.6033V70.371L85.0926 84.6972Z" fill="#39700E"/>
<path d="M60.0218 84.6907H42.114V72.7529L60.0218 84.6907ZM81.511 84.6907H63.6033V72.7529L81.511 84.6907Z" fill="#358310"/>
<path d="M42.114 84.6899H106.582V86.4807H42.114V84.6899Z" fill="#4BB01B"/>
<path d="M106.582 84.6972H85.0927V70.371L106.582 84.6972Z" fill="#39700E"/>
<path d="M103 84.6907H85.0927V72.7529L103 84.6907Z" fill="#358310"/>
<path d="M116.136 133.971H111.854C109.023 133.971 106.728 131.674 106.728 128.839V5.2615C106.728 2.42728 109.023 0.129517 111.854 0.129517H116.136C124.848 0.129517 131.935 7.225 131.935 15.9463V118.154C131.935 126.876 124.848 133.971 116.136 133.971ZM42.5774 97.4364H18.6883C8.36697 97.4364 0 89.0593 0 78.7259V55.3743C0 45.0409 8.36697 36.6638 18.6883 36.6638H42.5774V97.4364Z" fill="#5FFF79"/>
<path d="M169.841 72.092H152.836C150.006 72.092 147.71 69.7942 147.71 66.96C147.71 64.1258 150.006 61.828 152.836 61.828H169.841C172.672 61.828 174.967 64.1258 174.967 66.96C174.967 69.7942 172.672 72.092 169.841 72.092Z" fill="#E0E8F1"/>
<path d="M169.836 110.013C169.106 110.013 168.364 109.856 167.66 109.525L150.656 101.528C148.093 100.323 146.992 97.2661 148.195 94.7005C149.399 92.1352 152.452 91.0335 155.015 92.2375L172.019 100.234C174.581 101.439 175.683 104.496 174.479 107.062C173.606 108.922 171.761 110.013 169.836 110.013Z" fill="#CBDAEA"/>
<path d="M152.839 42.1685C150.914 42.1685 149.069 41.0775 148.196 39.2173C146.993 36.6516 148.094 33.595 150.656 32.39L167.661 24.393C170.222 23.1884 173.276 24.2904 174.48 26.8561C175.683 29.4217 174.582 32.4783 172.02 33.6833L155.015 41.6803C154.335 42.0015 153.592 42.1682 152.839 42.1685Z" fill="#E0E8F1"/>
<path d="M0 66.9561V78.7241C0 89.0575 8.36697 97.4346 18.6883 97.4346H42.5774V66.9561H0ZM106.728 66.9561V128.838C106.728 131.672 109.023 133.97 111.854 133.97H116.136C124.848 133.97 131.935 126.874 131.935 118.152V66.9561H106.728Z" fill="#0AEF3C"/>
<path d="M152.836 72.0881H169.841C172.672 72.0881 174.967 69.7903 174.967 66.9561H147.71C147.71 69.7903 150.006 72.0881 152.836 72.0881Z" fill="#CBDAEA"/>
</svg>
